<svg viewBox="0 0 512 512" xmlns="http://www.w3.org/2000/svg"><g data-name="1"><path d="M377 450H148.1A50.17 50.17 0 0 1 98 399.89V98.11A50.17 50.17 0 0 1 148.1 48h150.1a15 15 0 0 1 10.61 4.39l113.88 113.88a15 15 0 0 1 4.39 10.61v223A50.17 50.17 0 0 1 377 450ZM148.1 78A20.14 20.14 0 0 0 128 98.11v301.78A20.14 20.14 0 0 0 148.1 420H377a20.13 20.13 0 0 0 20.11-20.11v-216.8L292 78Z" fill="#ffffff" class="fill-000000"></path><path d="M412.08 191.88h-78.77a50.17 50.17 0 0 1-50.11-50.11V63a15 15 0 0 1 30 0v78.77a20.14 20.14 0 0 0 20.11 20.11h78.77a15 15 0 1 1 0 30ZM207.59 360A15 15 0 0 1 197 334.39L306.88 224.5a15 15 0 1 1 21.21 21.22L218.2 355.61a15 15 0 0 1-10.61 4.39Z" fill="#ffffff" class="fill-000000"></path><path d="M317.48 360a15 15 0 0 1-10.6-4.39L197 245.72a15 15 0 0 1 21.2-21.22l109.89 109.89A15 15 0 0 1 317.48 360Z" fill="#ffffff" class="fill-000000"></path></g></svg>