<svg viewBox="0 0 128 128" xml:space="preserve" xmlns="http://www.w3.org/2000/svg" enable-background="new 0 0 128 128"><path d="M91 45h-8v28H73v46H61V73H51V45h-8v36h10v46h28V81h10zM53 15c0 7.7 6.3 14 14 14s14-6.3 14-14S74.7 1 67 1 53 7.3 53 15zm20 0c0 3.3-2.7 6-6 6s-6-2.7-6-6 2.7-6 6-6 6 2.7 6 6zM19 25c0 7.7 6.3 14 14 14s14-6.3 14-14-6.3-14-14-14-14 6.3-14 14zm20 0c0 3.3-2.7 6-6 6s-6-2.7-6-6 2.7-6 6-6 6 2.7 6 6zM113 83h-10v36H87v8h24V91h10V51h-8zM87 25c0 7.7 6.3 14 14 14s14-6.3 14-14-6.3-14-14-14-14 6.3-14 14zm14-6c3.3 0 6 2.7 6 6s-2.7 6-6 6-6-2.7-6-6 2.7-6 6-6zM31 83H21V51h-8v40h10v36h24v-8H31z" fill="#ffffff" class="fill-000000"></path></svg>