<svg viewBox="0 0 32 32" xml:space="preserve" xmlns="http://www.w3.org/2000/svg"><g fill="#ffffff" class="fill-263238"><circle cx="7.5" cy="3.5" r=".5"></circle><circle cx="5.5" cy="3.5" r=".5"></circle><circle cx="3.5" cy="3.5" r=".5"></circle><path d="M26.5 6h-25a.5.5 0 0 1 0-1h25a.5.5 0 0 1 0 1z"></path><path d="M25.5 31h-23c-.827 0-1.5-.673-1.5-1.5v-27C1 1.673 1.673 1 2.5 1h23c.827 0 1.5.673 1.5 1.5v8a.5.5 0 0 1-1 0v-8c0-.275-.225-.5-.5-.5h-23c-.275 0-.5.225-.5.5v27c0 .275.225.5.5.5h23c.275 0 .5-.225.5-.5a.5.5 0 0 1 1 0c0 .827-.673 1.5-1.5 1.5z"></path></g><path d="M5.5 21h-1a.5.5 0 0 1 0-1h1a.5.5 0 0 1 0 1zM5.5 27h-1a.5.5 0 0 1 0-1h1a.5.5 0 0 1 0 1zM5.5 25h-1a.5.5 0 0 1 0-1h1a.5.5 0 0 1 0 1zM5.5 23h-1a.5.5 0 0 1 0-1h1a.5.5 0 0 1 0 1zM14.5 25h-7a.5.5 0 0 1 0-1h7a.5.5 0 0 1 0 1zM9.5 27h-2a.5.5 0 0 1 0-1h2a.5.5 0 0 1 0 1zM16.5 27h-2a.5.5 0 0 1 0-1h2a.5.5 0 0 1 0 1zM13.5 23h-6a.5.5 0 0 1 0-1h6a.5.5 0 0 1 0 1zM12.5 27h-1a.5.5 0 0 1 0-1h1a.5.5 0 0 1 0 1zM5.5 19h-1a.5.5 0 0 1 0-1h1a.5.5 0 0 1 0 1zM5.5 17h-1a.5.5 0 0 1 0-1h1a.5.5 0 0 1 0 1zM5.5 15h-1a.5.5 0 0 1 0-1h1a.5.5 0 0 1 0 1zM9.5 13h-2a.5.5 0 0 1 0-1h2a.5.5 0 0 1 0 1zM17.5 13h-3a.5.5 0 0 1 0-1h3a.5.5 0 0 1 0 1zM23.5 11h-5a.5.5 0 0 1 0-1h5a.5.5 0 0 1 0 1zM14 17H7.5a.5.5 0 0 1 0-1H14a.5.5 0 0 1 0 1zM11.5 21h-4a.5.5 0 0 1 0-1h4a.5.5 0 0 1 0 1zM16.5 11h-3a.5.5 0 0 1 0-1h3a.5.5 0 0 1 0 1zM9.5 19h-2a.5.5 0 0 1 0-1h2a.5.5 0 0 1 0 1zM13.5 21a.5.5 0 0 1 0-1 .5.5 0 0 1 0 1zM11.5 11h-4a.5.5 0 0 1 0-1h4a.5.5 0 0 1 0 1zM5.5 13h-1a.5.5 0 0 1 0-1h1a.5.5 0 0 1 0 1zM5.5 11h-1a.5.5 0 0 1 0-1h1a.5.5 0 0 1 0 1zM5.5 9h-1a.5.5 0 0 1 0-1h1a.5.5 0 0 1 0 1zM15 15H7.5a.5.5 0 0 1 0-1H15a.5.5 0 0 1 0 1zM13.5 19h-2a.5.5 0 0 1 0-1h2a.5.5 0 0 1 0 1zM8.5 9h-1a.5.5 0 0 1 0-1h1a.5.5 0 0 1 0 1zM12.5 13h-1a.5.5 0 0 1 0-1h1a.5.5 0 0 1 0 1z" fill="#ffffff" class="fill-263238"></path><path d="M23 28c-4.411 0-8-3.589-8-8s3.589-8 8-8 8 3.589 8 8-3.589 8-8 8zm0-15c-3.859 0-7 3.141-7 7s3.141 7 7 7 7-3.141 7-7-3.141-7-7-7z" fill="#ffffff" class="fill-263238"></path><path d="M22.501 23a.5.5 0 0 1-.492-.598l1-5a.5.5 0 1 1 .981.195l-1 5a.5.5 0 0 1-.489.403zM25.5 23a.5.5 0 0 1-.354-.853L27.293 20l-2.146-2.146a.5.5 0 0 1 .707-.707l2.5 2.5a.5.5 0 0 1 0 .707l-2.5 2.5A.502.502 0 0 1 25.5 23zM20.5 23a.502.502 0 0 1-.354-.146l-2.5-2.5a.5.5 0 0 1 0-.707l2.5-2.5a.5.5 0 0 1 .707.707L18.707 20l2.146 2.146A.5.5 0 0 1 20.5 23z" fill="#ffffff" class="fill-263238"></path></svg>